<svg width="1140" height="549" viewBox="0 0 1140 549" fill="none" xmlns="http://www.w3.org/2000/svg">
<g filter="url(#filter0_d_5_33849)">
<rect x="6" y="4" width="1128" height="537" rx="20" fill="white"/>
</g>
<path d="M102.344 497.266V504.476C102.344 505.279 102.097 505.923 101.602 506.408C101.108 506.884 100.454 507.122 99.6424 507.122C98.821 507.122 98.163 506.88 97.6684 506.394C97.1737 505.9 96.9264 505.228 96.9264 504.378H98.2004C98.2097 504.854 98.331 505.242 98.5644 505.54C98.807 505.839 99.1664 505.988 99.6424 505.988C100.118 505.988 100.473 505.848 100.706 505.568C100.94 505.279 101.056 504.915 101.056 504.476V497.266H102.344ZM111.462 504.854H107.206L106.422 507.024H105.078L108.606 497.322H110.076L113.59 507.024H112.246L111.462 504.854ZM111.098 503.818L109.334 498.89L107.57 503.818H111.098ZM123.64 507.024H122.366L117.242 499.254V507.024H115.968V497.252H117.242L122.366 505.008V497.252H123.64V507.024Z" fill="#526275"/>
<path d="M191.888 497.266V498.302H187.646V501.592H191.09V502.628H187.646V507.024H186.372V497.266H191.888ZM195.54 498.302V501.564H199.096V502.614H195.54V505.974H199.516V507.024H194.266V497.252H199.516V498.302H195.54ZM207.17 501.998C207.525 502.054 207.847 502.199 208.136 502.432C208.435 502.666 208.668 502.955 208.836 503.3C209.014 503.646 209.102 504.014 209.102 504.406C209.102 504.901 208.976 505.349 208.724 505.75C208.472 506.142 208.104 506.455 207.618 506.688C207.142 506.912 206.578 507.024 205.924 507.024H202.284V497.266H205.784C206.447 497.266 207.012 497.378 207.478 497.602C207.945 497.817 208.295 498.111 208.528 498.484C208.762 498.858 208.878 499.278 208.878 499.744C208.878 500.323 208.72 500.804 208.402 501.186C208.094 501.56 207.684 501.83 207.17 501.998ZM203.558 501.48H205.7C206.298 501.48 206.76 501.34 207.086 501.06C207.413 500.78 207.576 500.393 207.576 499.898C207.576 499.404 207.413 499.016 207.086 498.736C206.76 498.456 206.288 498.316 205.672 498.316H203.558V501.48ZM205.812 505.974C206.447 505.974 206.942 505.825 207.296 505.526C207.651 505.228 207.828 504.812 207.828 504.28C207.828 503.739 207.642 503.314 207.268 503.006C206.895 502.689 206.396 502.53 205.77 502.53H203.558V505.974H205.812Z" fill="#526275"/>
<path d="M280.174 497.336V507.024H278.9V499.8L275.68 507.024H274.784L271.55 499.786V507.024H270.276V497.336H271.648L275.232 505.344L278.816 497.336H280.174ZM288.943 504.854H284.687L283.903 507.024H282.559L286.087 497.322H287.557L291.071 507.024H289.727L288.943 504.854ZM288.579 503.818L286.815 498.89L285.051 503.818H288.579ZM298.586 507.024L296.262 503.034H294.722V507.024H293.448V497.266H296.598C297.336 497.266 297.956 497.392 298.46 497.644C298.974 497.896 299.356 498.237 299.608 498.666C299.86 499.096 299.986 499.586 299.986 500.136C299.986 500.808 299.79 501.401 299.398 501.914C299.016 502.428 298.437 502.768 297.662 502.936L300.112 507.024H298.586ZM294.722 502.012H296.598C297.289 502.012 297.807 501.844 298.152 501.508C298.498 501.163 298.67 500.706 298.67 500.136C298.67 499.558 298.498 499.11 298.152 498.792C297.816 498.475 297.298 498.316 296.598 498.316H294.722V502.012Z" fill="#526275"/>
<path d="M367.02 504.854H362.764L361.98 507.024H360.636L364.164 497.322H365.634L369.148 507.024H367.804L367.02 504.854ZM366.656 503.818L364.892 498.89L363.128 503.818H366.656ZM378.049 500.122C378.049 500.934 377.769 501.611 377.209 502.152C376.659 502.684 375.814 502.95 374.675 502.95H372.799V507.024H371.525V497.266H374.675C375.777 497.266 376.612 497.532 377.181 498.064C377.76 498.596 378.049 499.282 378.049 500.122ZM374.675 501.9C375.385 501.9 375.907 501.746 376.243 501.438C376.579 501.13 376.747 500.692 376.747 500.122C376.747 498.918 376.057 498.316 374.675 498.316H372.799V501.9H374.675ZM385.611 507.024L383.287 503.034H381.747V507.024H380.473V497.266H383.623C384.36 497.266 384.981 497.392 385.485 497.644C385.998 497.896 386.381 498.237 386.633 498.666C386.885 499.096 387.011 499.586 387.011 500.136C387.011 500.808 386.815 501.401 386.423 501.914C386.04 502.428 385.461 502.768 384.687 502.936L387.137 507.024H385.611ZM381.747 502.012H383.623C384.313 502.012 384.831 501.844 385.177 501.508C385.522 501.163 385.695 500.706 385.695 500.136C385.695 499.558 385.522 499.11 385.177 498.792C384.841 498.475 384.323 498.316 383.623 498.316H381.747V502.012Z" fill="#526275"/>
<path d="M458.345 497.336V507.024H457.071V499.8L453.851 507.024H452.955L449.721 499.786V507.024H448.447V497.336H449.819L453.403 505.344L456.987 497.336H458.345ZM467.114 504.854H462.858L462.074 507.024H460.73L464.258 497.322H465.728L469.242 507.024H467.898L467.114 504.854ZM466.75 503.818L464.986 498.89L463.222 503.818H466.75ZM478.451 497.266L475.273 503.342V507.024H473.999V503.342L470.807 497.266H472.221L474.629 502.208L477.037 497.266H478.451Z" fill="#526275"/>
<path d="M544.338 497.266V504.476C544.338 505.279 544.09 505.923 543.596 506.408C543.101 506.884 542.448 507.122 541.636 507.122C540.814 507.122 540.156 506.88 539.662 506.394C539.167 505.9 538.92 505.228 538.92 504.378H540.194C540.203 504.854 540.324 505.242 540.558 505.54C540.8 505.839 541.16 505.988 541.636 505.988C542.112 505.988 542.466 505.848 542.7 505.568C542.933 505.279 543.05 504.915 543.05 504.476V497.266H544.338ZM548.933 497.266V503.44C548.933 504.308 549.143 504.952 549.563 505.372C549.993 505.792 550.585 506.002 551.341 506.002C552.088 506.002 552.671 505.792 553.091 505.372C553.521 504.952 553.735 504.308 553.735 503.44V497.266H555.009V503.426C555.009 504.238 554.846 504.924 554.519 505.484C554.193 506.035 553.749 506.446 553.189 506.716C552.639 506.987 552.018 507.122 551.327 507.122C550.637 507.122 550.011 506.987 549.451 506.716C548.901 506.446 548.462 506.035 548.135 505.484C547.818 504.924 547.659 504.238 547.659 503.426V497.266H548.933ZM565.647 507.024H564.373L559.249 499.254V507.024H557.975V497.252H559.249L564.373 505.008V497.252H565.647V507.024Z" fill="#526275"/>
<path d="M634.238 497.266V504.476C634.238 505.279 633.991 505.923 633.496 506.408C633.001 506.884 632.348 507.122 631.536 507.122C630.715 507.122 630.057 506.88 629.562 506.394C629.067 505.9 628.82 505.228 628.82 504.378H630.094C630.103 504.854 630.225 505.242 630.458 505.54C630.701 505.839 631.06 505.988 631.536 505.988C632.012 505.988 632.367 505.848 632.6 505.568C632.833 505.279 632.95 504.915 632.95 504.476V497.266H634.238ZM638.834 497.266V503.44C638.834 504.308 639.044 504.952 639.464 505.372C639.893 505.792 640.486 506.002 641.242 506.002C641.988 506.002 642.572 505.792 642.992 505.372C643.421 504.952 643.636 504.308 643.636 503.44V497.266H644.91V503.426C644.91 504.238 644.746 504.924 644.42 505.484C644.093 506.035 643.65 506.446 643.09 506.716C642.539 506.987 641.918 507.122 641.228 507.122C640.537 507.122 639.912 506.987 639.352 506.716C638.801 506.446 638.362 506.035 638.036 505.484C637.718 504.924 637.56 504.238 637.56 503.426V497.266H638.834ZM649.149 505.988H652.565V507.024H647.875V497.266H649.149V505.988Z" fill="#526275"/>
<path d="M719.16 504.854H714.904L714.12 507.024H712.776L716.304 497.322H717.774L721.288 507.024H719.944L719.16 504.854ZM718.796 503.818L717.032 498.89L715.268 503.818H718.796ZM724.912 497.266V503.44C724.912 504.308 725.122 504.952 725.542 505.372C725.971 505.792 726.564 506.002 727.32 506.002C728.067 506.002 728.65 505.792 729.07 505.372C729.499 504.952 729.714 504.308 729.714 503.44V497.266H730.988V503.426C730.988 504.238 730.825 504.924 730.498 505.484C730.171 506.035 729.728 506.446 729.168 506.716C728.617 506.987 727.997 507.122 727.306 507.122C726.615 507.122 725.99 506.987 725.43 506.716C724.879 506.446 724.441 506.035 724.114 505.484C723.797 504.924 723.638 504.238 723.638 503.426V497.266H724.912ZM741.345 500.094C741.074 499.525 740.682 499.086 740.169 498.778C739.656 498.461 739.058 498.302 738.377 498.302C737.696 498.302 737.08 498.461 736.529 498.778C735.988 499.086 735.558 499.534 735.241 500.122C734.933 500.701 734.779 501.373 734.779 502.138C734.779 502.904 734.933 503.576 735.241 504.154C735.558 504.733 735.988 505.181 736.529 505.498C737.08 505.806 737.696 505.96 738.377 505.96C739.329 505.96 740.113 505.676 740.729 505.106C741.345 504.537 741.704 503.767 741.807 502.796H737.915V501.76H743.165V502.74C743.09 503.543 742.838 504.28 742.409 504.952C741.98 505.615 741.415 506.142 740.715 506.534C740.015 506.917 739.236 507.108 738.377 507.108C737.472 507.108 736.646 506.898 735.899 506.478C735.152 506.049 734.56 505.456 734.121 504.7C733.692 503.944 733.477 503.09 733.477 502.138C733.477 501.186 733.692 500.332 734.121 499.576C734.56 498.811 735.152 498.218 735.899 497.798C736.646 497.369 737.472 497.154 738.377 497.154C739.413 497.154 740.328 497.411 741.121 497.924C741.924 498.438 742.507 499.161 742.871 500.094H741.345Z" fill="#526275"/>
<path d="M807.624 507.122C806.98 507.122 806.401 507.01 805.888 506.786C805.384 506.553 804.987 506.236 804.698 505.834C804.409 505.424 804.259 504.952 804.25 504.42H805.608C805.655 504.878 805.841 505.265 806.168 505.582C806.504 505.89 806.989 506.044 807.624 506.044C808.231 506.044 808.707 505.895 809.052 505.596C809.407 505.288 809.584 504.896 809.584 504.42C809.584 504.047 809.481 503.744 809.276 503.51C809.071 503.277 808.814 503.1 808.506 502.978C808.198 502.857 807.783 502.726 807.26 502.586C806.616 502.418 806.098 502.25 805.706 502.082C805.323 501.914 804.992 501.653 804.712 501.298C804.441 500.934 804.306 500.449 804.306 499.842C804.306 499.31 804.441 498.839 804.712 498.428C804.983 498.018 805.361 497.7 805.846 497.476C806.341 497.252 806.905 497.14 807.54 497.14C808.455 497.14 809.201 497.369 809.78 497.826C810.368 498.284 810.699 498.89 810.774 499.646H809.374C809.327 499.273 809.131 498.946 808.786 498.666C808.441 498.377 807.983 498.232 807.414 498.232C806.882 498.232 806.448 498.372 806.112 498.652C805.776 498.923 805.608 499.306 805.608 499.8C805.608 500.155 805.706 500.444 805.902 500.668C806.107 500.892 806.355 501.065 806.644 501.186C806.943 501.298 807.358 501.429 807.89 501.578C808.534 501.756 809.052 501.933 809.444 502.11C809.836 502.278 810.172 502.544 810.452 502.908C810.732 503.263 810.872 503.748 810.872 504.364C810.872 504.84 810.746 505.288 810.494 505.708C810.242 506.128 809.869 506.469 809.374 506.73C808.879 506.992 808.296 507.122 807.624 507.122ZM814.861 498.302V501.564H818.417V502.614H814.861V505.974H818.837V507.024H813.587V497.252H818.837V498.302H814.861ZM828.129 500.122C828.129 500.934 827.849 501.611 827.289 502.152C826.738 502.684 825.893 502.95 824.755 502.95H822.879V507.024H821.605V497.266H824.755C825.856 497.266 826.691 497.532 827.261 498.064C827.839 498.596 828.129 499.282 828.129 500.122ZM824.755 501.9C825.464 501.9 825.987 501.746 826.323 501.438C826.659 501.13 826.827 500.692 826.827 500.122C826.827 498.918 826.136 498.316 824.755 498.316H822.879V501.9H824.755Z" fill="#526275"/>
<path d="M894.008 507.122C893.102 507.122 892.276 506.912 891.53 506.492C890.783 506.063 890.19 505.47 889.752 504.714C889.322 503.949 889.108 503.09 889.108 502.138C889.108 501.186 889.322 500.332 889.752 499.576C890.19 498.811 890.783 498.218 891.53 497.798C892.276 497.369 893.102 497.154 894.008 497.154C894.922 497.154 895.753 497.369 896.5 497.798C897.246 498.218 897.834 498.806 898.264 499.562C898.693 500.318 898.908 501.177 898.908 502.138C898.908 503.1 898.693 503.958 898.264 504.714C897.834 505.47 897.246 506.063 896.5 506.492C895.753 506.912 894.922 507.122 894.008 507.122ZM894.008 506.016C894.689 506.016 895.3 505.858 895.842 505.54C896.392 505.223 896.822 504.77 897.13 504.182C897.447 503.594 897.606 502.913 897.606 502.138C897.606 501.354 897.447 500.673 897.13 500.094C896.822 499.506 896.397 499.054 895.856 498.736C895.314 498.419 894.698 498.26 894.008 498.26C893.317 498.26 892.701 498.419 892.16 498.736C891.618 499.054 891.189 499.506 890.872 500.094C890.564 500.673 890.41 501.354 890.41 502.138C890.41 502.913 890.564 503.594 890.872 504.182C891.189 504.77 891.618 505.223 892.16 505.54C892.71 505.858 893.326 506.016 894.008 506.016ZM900.954 502.138C900.954 501.186 901.168 500.332 901.598 499.576C902.027 498.811 902.61 498.214 903.348 497.784C904.094 497.355 904.92 497.14 905.826 497.14C906.89 497.14 907.818 497.397 908.612 497.91C909.405 498.424 909.984 499.152 910.348 500.094H908.822C908.551 499.506 908.159 499.054 907.646 498.736C907.142 498.419 906.535 498.26 905.826 498.26C905.144 498.26 904.533 498.419 903.992 498.736C903.45 499.054 903.026 499.506 902.718 500.094C902.41 500.673 902.256 501.354 902.256 502.138C902.256 502.913 902.41 503.594 902.718 504.182C903.026 504.761 903.45 505.209 903.992 505.526C904.533 505.844 905.144 506.002 905.826 506.002C906.535 506.002 907.142 505.848 907.646 505.54C908.159 505.223 908.551 504.77 908.822 504.182H910.348C909.984 505.116 909.405 505.839 908.612 506.352C907.818 506.856 906.89 507.108 905.826 507.108C904.92 507.108 904.094 506.898 903.348 506.478C902.61 506.049 902.027 505.456 901.598 504.7C901.168 503.944 900.954 503.09 900.954 502.138ZM919.09 497.266V498.302H916.43V507.024H915.156V498.302H912.482V497.266H919.09Z" fill="#526275"/>
<path d="M986.798 507.024H985.524L980.4 499.254V507.024H979.126V497.252H980.4L985.524 505.008V497.252H986.798V507.024ZM994.233 507.122C993.328 507.122 992.502 506.912 991.755 506.492C991.009 506.063 990.416 505.47 989.977 504.714C989.548 503.949 989.333 503.09 989.333 502.138C989.333 501.186 989.548 500.332 989.977 499.576C990.416 498.811 991.009 498.218 991.755 497.798C992.502 497.369 993.328 497.154 994.233 497.154C995.148 497.154 995.979 497.369 996.725 497.798C997.472 498.218 998.06 498.806 998.489 499.562C998.919 500.318 999.133 501.177 999.133 502.138C999.133 503.1 998.919 503.958 998.489 504.714C998.06 505.47 997.472 506.063 996.725 506.492C995.979 506.912 995.148 507.122 994.233 507.122ZM994.233 506.016C994.915 506.016 995.526 505.858 996.067 505.54C996.618 505.223 997.047 504.77 997.355 504.182C997.673 503.594 997.831 502.913 997.831 502.138C997.831 501.354 997.673 500.673 997.355 500.094C997.047 499.506 996.623 499.054 996.081 498.736C995.54 498.419 994.924 498.26 994.233 498.26C993.543 498.26 992.927 498.419 992.385 498.736C991.844 499.054 991.415 499.506 991.097 500.094C990.789 500.673 990.635 501.354 990.635 502.138C990.635 502.913 990.789 503.594 991.097 504.182C991.415 504.77 991.844 505.223 992.385 505.54C992.936 505.858 993.552 506.016 994.233 506.016ZM1009.72 497.266L1006.04 507.024H1004.57L1000.89 497.266H1002.24L1005.31 505.68L1008.38 497.266H1009.72Z" fill="#526275"/>
<path d="M1075.93 497.266C1077 497.266 1077.92 497.467 1078.69 497.868C1079.48 498.26 1080.07 498.825 1080.48 499.562C1080.9 500.3 1081.11 501.168 1081.11 502.166C1081.11 503.165 1080.9 504.033 1080.48 504.77C1080.07 505.498 1079.48 506.058 1078.69 506.45C1077.92 506.833 1077 507.024 1075.93 507.024H1072.9V497.266H1075.93ZM1075.93 505.974C1077.19 505.974 1078.15 505.643 1078.82 504.98C1079.48 504.308 1079.81 503.37 1079.81 502.166C1079.81 500.953 1079.48 500.006 1078.8 499.324C1078.14 498.643 1077.18 498.302 1075.93 498.302H1074.17V505.974H1075.93ZM1084.91 498.302V501.564H1088.46V502.614H1084.91V505.974H1088.88V507.024H1083.63V497.252H1088.88V498.302H1084.91ZM1091.18 502.138C1091.18 501.186 1091.39 500.332 1091.82 499.576C1092.25 498.811 1092.83 498.214 1093.57 497.784C1094.32 497.355 1095.14 497.14 1096.05 497.14C1097.11 497.14 1098.04 497.397 1098.83 497.91C1099.63 498.424 1100.21 499.152 1100.57 500.094H1099.04C1098.77 499.506 1098.38 499.054 1097.87 498.736C1097.36 498.419 1096.76 498.26 1096.05 498.26C1095.37 498.26 1094.75 498.419 1094.21 498.736C1093.67 499.054 1093.25 499.506 1092.94 500.094C1092.63 500.673 1092.48 501.354 1092.48 502.138C1092.48 502.913 1092.63 503.594 1092.94 504.182C1093.25 504.761 1093.67 505.209 1094.21 505.526C1094.75 505.844 1095.37 506.002 1096.05 506.002C1096.76 506.002 1097.36 505.848 1097.87 505.54C1098.38 505.223 1098.77 504.77 1099.04 504.182H1100.57C1100.21 505.116 1099.63 505.839 1098.83 506.352C1098.04 506.856 1097.11 507.108 1096.05 507.108C1095.14 507.108 1094.32 506.898 1093.57 506.478C1092.83 506.049 1092.25 505.456 1091.82 504.7C1091.39 503.944 1091.18 503.09 1091.18 502.138Z" fill="#526275"/>
<path d="M69.077 467.858C69.077 466.253 69.3383 465.002 69.861 464.106C70.3837 463.201 71.2983 462.748 72.605 462.748C73.9023 462.748 74.8123 463.201 75.335 464.106C75.8577 465.002 76.119 466.253 76.119 467.858C76.119 469.492 75.8577 470.761 75.335 471.666C74.8123 472.572 73.9023 473.024 72.605 473.024C71.2983 473.024 70.3837 472.572 69.861 471.666C69.3383 470.761 69.077 469.492 69.077 467.858ZM74.859 467.858C74.859 467.046 74.803 466.36 74.691 465.8C74.5883 465.231 74.369 464.774 74.033 464.428C73.7063 464.083 73.2303 463.91 72.605 463.91C71.9703 463.91 71.485 464.083 71.149 464.428C70.8223 464.774 70.603 465.231 70.491 465.8C70.3883 466.36 70.337 467.046 70.337 467.858C70.337 468.698 70.3883 469.403 70.491 469.972C70.603 470.542 70.8223 470.999 71.149 471.344C71.485 471.69 71.9703 471.862 72.605 471.862C73.2303 471.862 73.7063 471.69 74.033 471.344C74.369 470.999 74.5883 470.542 74.691 469.972C74.803 469.403 74.859 468.698 74.859 467.858Z" fill="#526275"/>
<path d="M56.6791 399.118H51.7651V402.31C51.9798 402.011 52.2971 401.768 52.7171 401.582C53.1371 401.386 53.5898 401.288 54.0751 401.288C54.8498 401.288 55.4798 401.451 55.9651 401.778C56.4504 402.095 56.7958 402.51 57.0011 403.024C57.2158 403.528 57.3231 404.064 57.3231 404.634C57.3231 405.306 57.1971 405.908 56.9451 406.44C56.6931 406.972 56.3058 407.392 55.7831 407.7C55.2698 408.008 54.6304 408.162 53.8651 408.162C52.8851 408.162 52.0918 407.91 51.4851 407.406C50.8784 406.902 50.5098 406.23 50.3791 405.39H51.6251C51.7464 405.922 52.0031 406.337 52.3951 406.636C52.7871 406.934 53.2818 407.084 53.8791 407.084C54.6164 407.084 55.1718 406.864 55.5451 406.426C55.9184 405.978 56.1051 405.39 56.1051 404.662C56.1051 403.934 55.9184 403.374 55.5451 402.982C55.1718 402.58 54.6211 402.38 53.8931 402.38C53.3984 402.38 52.9644 402.501 52.5911 402.744C52.2271 402.977 51.9611 403.299 51.7931 403.71H50.5891V397.998H56.6791V399.118ZM59.8561 402.968C59.8561 401.362 60.1175 400.112 60.6401 399.216C61.1628 398.31 62.0775 397.858 63.3841 397.858C64.6815 397.858 65.5915 398.31 66.1141 399.216C66.6368 400.112 66.8981 401.362 66.8981 402.968C66.8981 404.601 66.6368 405.87 66.1141 406.776C65.5915 407.681 64.6815 408.134 63.3841 408.134C62.0775 408.134 61.1628 407.681 60.6401 406.776C60.1175 405.87 59.8561 404.601 59.8561 402.968ZM65.6381 402.968C65.6381 402.156 65.5821 401.47 65.4701 400.91C65.3675 400.34 65.1481 399.883 64.8121 399.538C64.4855 399.192 64.0095 399.02 63.3841 399.02C62.7495 399.02 62.2641 399.192 61.9281 399.538C61.6015 399.883 61.3821 400.34 61.2701 400.91C61.1675 401.47 61.1161 402.156 61.1161 402.968C61.1161 403.808 61.1675 404.512 61.2701 405.082C61.3821 405.651 61.6015 406.108 61.9281 406.454C62.2641 406.799 62.7495 406.972 63.3841 406.972C64.0095 406.972 64.4855 406.799 64.8121 406.454C65.1481 406.108 65.3675 405.651 65.4701 405.082C65.5821 404.512 65.6381 403.808 65.6381 402.968ZM74.9891 408.134L70.9711 403.682V408.134H69.6971V398.376H70.9711V402.898L75.0031 398.376H76.6131L72.1891 403.262L76.6551 408.134H74.9891Z" fill="#526275"/>
<path d="M44.5647 339.174V338.012H47.1967V348.134H45.9087V339.174H44.5647ZM50.2251 342.968C50.2251 341.362 50.4864 340.112 51.0091 339.216C51.5318 338.31 52.4464 337.858 53.7531 337.858C55.0504 337.858 55.9604 338.31 56.4831 339.216C57.0058 340.112 57.2671 341.362 57.2671 342.968C57.2671 344.601 57.0058 345.87 56.4831 346.776C55.9604 347.681 55.0504 348.134 53.7531 348.134C52.4464 348.134 51.5318 347.681 51.0091 346.776C50.4864 345.87 50.2251 344.601 50.2251 342.968ZM56.0071 342.968C56.0071 342.156 55.9511 341.47 55.8391 340.91C55.7364 340.34 55.5171 339.883 55.1811 339.538C54.8544 339.192 54.3784 339.02 53.7531 339.02C53.1184 339.02 52.6331 339.192 52.2971 339.538C51.9704 339.883 51.7511 340.34 51.6391 340.91C51.5364 341.47 51.4851 342.156 51.4851 342.968C51.4851 343.808 51.5364 344.512 51.6391 345.082C51.7511 345.651 51.9704 346.108 52.2971 346.454C52.6331 346.799 53.1184 346.972 53.7531 346.972C54.3784 346.972 54.8544 346.799 55.1811 346.454C55.5171 346.108 55.7364 345.651 55.8391 345.082C55.9511 344.512 56.0071 343.808 56.0071 342.968ZM59.8561 342.968C59.8561 341.362 60.1175 340.112 60.6401 339.216C61.1628 338.31 62.0775 337.858 63.3841 337.858C64.6815 337.858 65.5915 338.31 66.1141 339.216C66.6368 340.112 66.8981 341.362 66.8981 342.968C66.8981 344.601 66.6368 345.87 66.1141 346.776C65.5915 347.681 64.6815 348.134 63.3841 348.134C62.0775 348.134 61.1628 347.681 60.6401 346.776C60.1175 345.87 59.8561 344.601 59.8561 342.968ZM65.6381 342.968C65.6381 342.156 65.5821 341.47 65.4701 340.91C65.3675 340.34 65.1481 339.883 64.8121 339.538C64.4855 339.192 64.0095 339.02 63.3841 339.02C62.7495 339.02 62.2641 339.192 61.9281 339.538C61.6015 339.883 61.3821 340.34 61.2701 340.91C61.1675 341.47 61.1161 342.156 61.1161 342.968C61.1161 343.808 61.1675 344.512 61.2701 345.082C61.3821 345.651 61.6015 346.108 61.9281 346.454C62.2641 346.799 62.7495 346.972 63.3841 346.972C64.0095 346.972 64.4855 346.799 64.8121 346.454C65.1481 346.108 65.3675 345.651 65.4701 345.082C65.5821 344.512 65.6381 343.808 65.6381 342.968ZM74.9891 348.134L70.9711 343.682V348.134H69.6971V338.376H70.9711V342.898L75.0031 338.376H76.6131L72.1891 343.262L76.6551 348.134H74.9891Z" fill="#526275"/>
<path d="M47.0481 277.082H42.1341V280.274C42.3488 279.975 42.6661 279.732 43.0861 279.546C43.5061 279.35 43.9588 279.252 44.4441 279.252C45.2188 279.252 45.8488 279.415 46.3341 279.742C46.8194 280.059 47.1648 280.474 47.3701 280.988C47.5848 281.492 47.6921 282.028 47.6921 282.598C47.6921 283.27 47.5661 283.872 47.3141 284.404C47.0621 284.936 46.6748 285.356 46.1521 285.664C45.6388 285.972 44.9994 286.126 44.2341 286.126C43.2541 286.126 42.4608 285.874 41.8541 285.37C41.2474 284.866 40.8788 284.194 40.7481 283.354H41.9941C42.1154 283.886 42.3721 284.301 42.7641 284.6C43.1561 284.898 43.6508 285.048 44.2481 285.048C44.9854 285.048 45.5408 284.828 45.9141 284.39C46.2874 283.942 46.4741 283.354 46.4741 282.626C46.4741 281.898 46.2874 281.338 45.9141 280.946C45.5408 280.544 44.9901 280.344 44.2621 280.344C43.7674 280.344 43.3334 280.465 42.9601 280.708C42.5961 280.941 42.3301 281.263 42.1621 281.674H40.9581V275.962H47.0481V277.082ZM50.2251 280.932C50.2251 279.326 50.4864 278.076 51.0091 277.18C51.5318 276.274 52.4464 275.822 53.7531 275.822C55.0504 275.822 55.9604 276.274 56.4831 277.18C57.0058 278.076 57.2671 279.326 57.2671 280.932C57.2671 282.565 57.0058 283.834 56.4831 284.74C55.9604 285.645 55.0504 286.098 53.7531 286.098C52.4464 286.098 51.5318 285.645 51.0091 284.74C50.4864 283.834 50.2251 282.565 50.2251 280.932ZM56.0071 280.932C56.0071 280.12 55.9511 279.434 55.8391 278.874C55.7364 278.304 55.5171 277.847 55.1811 277.502C54.8544 277.156 54.3784 276.984 53.7531 276.984C53.1184 276.984 52.6331 277.156 52.2971 277.502C51.9704 277.847 51.7511 278.304 51.6391 278.874C51.5364 279.434 51.4851 280.12 51.4851 280.932C51.4851 281.772 51.5364 282.476 51.6391 283.046C51.7511 283.615 51.9704 284.072 52.2971 284.418C52.6331 284.763 53.1184 284.936 53.7531 284.936C54.3784 284.936 54.8544 284.763 55.1811 284.418C55.5171 284.072 55.7364 283.615 55.8391 283.046C55.9511 282.476 56.0071 281.772 56.0071 280.932ZM59.8561 280.932C59.8561 279.326 60.1175 278.076 60.6401 277.18C61.1628 276.274 62.0775 275.822 63.3841 275.822C64.6815 275.822 65.5915 276.274 66.1141 277.18C66.6368 278.076 66.8981 279.326 66.8981 280.932C66.8981 282.565 66.6368 283.834 66.1141 284.74C65.5915 285.645 64.6815 286.098 63.3841 286.098C62.0775 286.098 61.1628 285.645 60.6401 284.74C60.1175 283.834 59.8561 282.565 59.8561 280.932ZM65.6381 280.932C65.6381 280.12 65.5821 279.434 65.4701 278.874C65.3675 278.304 65.1481 277.847 64.8121 277.502C64.4855 277.156 64.0095 276.984 63.3841 276.984C62.7495 276.984 62.2641 277.156 61.9281 277.502C61.6015 277.847 61.3821 278.304 61.2701 278.874C61.1675 279.434 61.1161 280.12 61.1161 280.932C61.1161 281.772 61.1675 282.476 61.2701 283.046C61.3821 283.615 61.6015 284.072 61.9281 284.418C62.2641 284.763 62.7495 284.936 63.3841 284.936C64.0095 284.936 64.4855 284.763 64.8121 284.418C65.1481 284.072 65.3675 283.615 65.4701 283.046C65.5821 282.476 65.6381 281.772 65.6381 280.932ZM74.9891 286.098L70.9711 281.646V286.098H69.6971V276.34H70.9711V280.862L75.0031 276.34H76.6131L72.1891 281.226L76.6551 286.098H74.9891Z" fill="#526275"/>
<path d="M60.149 219.174V218.012H62.781V228.134H61.493V219.174H60.149ZM75.9174 218.446V228.134H74.6434V220.91L71.4234 228.134H70.5274L67.2934 220.896V228.134H66.0194V218.446H67.3914L70.9754 226.454L74.5594 218.446H75.9174Z" fill="#526275"/>
<path d="M62.6324 158.152H57.7184V161.344C57.9331 161.045 58.2504 160.803 58.6704 160.616C59.0904 160.42 59.5431 160.322 60.0284 160.322C60.8031 160.322 61.4331 160.485 61.9184 160.812C62.4037 161.129 62.7491 161.545 62.9544 162.058C63.1691 162.562 63.2764 163.099 63.2764 163.668C63.2764 164.34 63.1504 164.942 62.8984 165.474C62.6464 166.006 62.2591 166.426 61.7364 166.734C61.2231 167.042 60.5837 167.196 59.8184 167.196C58.8384 167.196 58.0451 166.944 57.4384 166.44C56.8317 165.936 56.4631 165.264 56.3324 164.424H57.5784C57.6997 164.956 57.9564 165.371 58.3484 165.67C58.7404 165.969 59.2351 166.118 59.8324 166.118C60.5697 166.118 61.1251 165.899 61.4984 165.46C61.8717 165.012 62.0584 164.424 62.0584 163.696C62.0584 162.968 61.8717 162.408 61.4984 162.016C61.1251 161.615 60.5744 161.414 59.8464 161.414C59.3517 161.414 58.9177 161.535 58.5444 161.778C58.1804 162.011 57.9144 162.333 57.7464 162.744H56.5424V157.032H62.6324V158.152ZM75.9174 157.48V167.168H74.6434V159.944L71.4234 167.168H70.5274L67.2934 159.93V167.168H66.0194V157.48H67.3914L70.9754 165.488L74.5594 157.48H75.9174Z" fill="#526275"/>
<line x1="95.543" y1="470.109" x2="1101.5" y2="470.109" stroke="#526275" stroke-opacity="0.08" stroke-linecap="round"/>
<line x1="95.543" y1="403.634" x2="1101.5" y2="403.634" stroke="#526275" stroke-opacity="0.08" stroke-linecap="round"/>
<line x1="95.543" y1="343.634" x2="1101.5" y2="343.634" stroke="#526275" stroke-opacity="0.08" stroke-linecap="round"/>
<line x1="95.543" y1="283.634" x2="1101.5" y2="283.634" stroke="#526275" stroke-opacity="0.08" stroke-linecap="round"/>
<line x1="95.543" y1="223.634" x2="1101.5" y2="223.634" stroke="#526275" stroke-opacity="0.08" stroke-linecap="round"/>
<line x1="95.543" y1="162.668" x2="1101.5" y2="162.668" stroke="#526275" stroke-opacity="0.08" stroke-linecap="round"/>
<line x1="38" y1="113.5" x2="1102" y2="113.5" stroke="#526275" stroke-opacity="0.08"/>
<rect x="822" y="37" width="280.05" height="49" rx="14.7687" fill="#526275" fill-opacity="0.08"/>
<rect x="993" y="43" width="100" height="37" rx="13" fill="#194685"/>
<path d="M1008.55 57.04V55.878H1011.18V66H1009.89V57.04H1008.55ZM1013.21 64.978C1014.4 64.026 1015.33 63.2467 1016 62.64C1016.67 62.024 1017.23 61.3847 1017.69 60.722C1018.16 60.05 1018.39 59.392 1018.39 58.748C1018.39 58.1413 1018.24 57.6653 1017.94 57.32C1017.65 56.9653 1017.18 56.788 1016.53 56.788C1015.9 56.788 1015.4 56.9887 1015.05 57.39C1014.7 57.782 1014.51 58.3093 1014.49 58.972H1013.25C1013.29 57.9267 1013.61 57.1193 1014.21 56.55C1014.8 55.9807 1015.57 55.696 1016.52 55.696C1017.48 55.696 1018.24 55.962 1018.8 56.494C1019.37 57.026 1019.65 57.7587 1019.65 58.692C1019.65 59.4667 1019.42 60.2227 1018.95 60.96C1018.49 61.688 1017.97 62.332 1017.38 62.892C1016.8 63.4427 1016.04 64.0867 1015.13 64.824H1019.95V65.888H1013.21V64.978ZM1034.59 58.188C1035.18 58.188 1035.72 58.314 1036.18 58.566C1036.65 58.8087 1037.02 59.1773 1037.29 59.672C1037.56 60.1667 1037.7 60.7687 1037.7 61.478V66H1036.44V61.66C1036.44 60.8947 1036.24 60.3113 1035.86 59.91C1035.49 59.4993 1034.98 59.294 1034.34 59.294C1033.67 59.294 1033.15 59.5087 1032.75 59.938C1032.36 60.358 1032.17 60.9693 1032.17 61.772V66H1030.91V61.66C1030.91 60.8947 1030.71 60.3113 1030.33 59.91C1029.96 59.4993 1029.45 59.294 1028.81 59.294C1028.14 59.294 1027.62 59.5087 1027.22 59.938C1026.83 60.358 1026.64 60.9693 1026.64 61.772V66H1025.36V58.328H1026.64V59.434C1026.89 59.0327 1027.22 58.7247 1027.64 58.51C1028.07 58.2953 1028.54 58.188 1029.06 58.188C1029.7 58.188 1030.27 58.3327 1030.77 58.622C1031.26 58.9113 1031.63 59.336 1031.87 59.896C1032.09 59.3547 1032.44 58.9347 1032.94 58.636C1033.43 58.3373 1033.98 58.188 1034.59 58.188ZM1043.13 66.126C1042.41 66.126 1041.76 65.9627 1041.17 65.636C1040.59 65.3093 1040.14 64.8473 1039.8 64.25C1039.47 63.6433 1039.31 62.9433 1039.31 62.15C1039.31 61.366 1039.48 60.6753 1039.81 60.078C1040.16 59.4713 1040.63 59.0093 1041.21 58.692C1041.8 58.3653 1042.46 58.202 1043.19 58.202C1043.92 58.202 1044.57 58.3653 1045.16 58.692C1045.75 59.0093 1046.21 59.4667 1046.55 60.064C1046.89 60.6613 1047.07 61.3567 1047.07 62.15C1047.07 62.9433 1046.89 63.6433 1046.53 64.25C1046.19 64.8473 1045.72 65.3093 1045.12 65.636C1044.52 65.9627 1043.86 66.126 1043.13 66.126ZM1043.13 65.006C1043.59 65.006 1044.02 64.8987 1044.42 64.684C1044.82 64.4693 1045.14 64.1473 1045.39 63.718C1045.64 63.2887 1045.76 62.766 1045.76 62.15C1045.76 61.534 1045.64 61.0113 1045.4 60.582C1045.16 60.1527 1044.84 59.8353 1044.45 59.63C1044.06 59.4153 1043.63 59.308 1043.17 59.308C1042.71 59.308 1042.28 59.4153 1041.89 59.63C1041.5 59.8353 1041.19 60.1527 1040.96 60.582C1040.73 61.0113 1040.61 61.534 1040.61 62.15C1040.61 62.7753 1040.72 63.3027 1040.95 63.732C1041.18 64.1613 1041.49 64.4833 1041.87 64.698C1042.25 64.9033 1042.67 65.006 1043.13 65.006ZM1052.48 58.188C1053.41 58.188 1054.17 58.4727 1054.75 59.042C1055.32 59.602 1055.61 60.414 1055.61 61.478V66H1054.35V61.66C1054.35 60.8947 1054.16 60.3113 1053.78 59.91C1053.4 59.4993 1052.87 59.294 1052.21 59.294C1051.54 59.294 1051 59.504 1050.6 59.924C1050.21 60.344 1050.01 60.9553 1050.01 61.758V66H1048.74V58.328H1050.01V59.42C1050.27 59.028 1050.61 58.7247 1051.04 58.51C1051.47 58.2953 1051.96 58.188 1052.48 58.188ZM1059.25 59.378V63.9C1059.25 64.2733 1059.33 64.5393 1059.49 64.698C1059.65 64.8473 1059.92 64.922 1060.31 64.922H1061.25V66H1060.1C1059.39 66 1058.86 65.8367 1058.51 65.51C1058.15 65.1833 1057.98 64.6467 1057.98 63.9V59.378H1056.98V58.328H1057.98V56.396H1059.25V58.328H1061.25V59.378H1059.25ZM1066.6 58.188C1067.18 58.188 1067.7 58.314 1068.17 58.566C1068.64 58.8087 1069 59.1773 1069.26 59.672C1069.53 60.1667 1069.67 60.7687 1069.67 61.478V66H1068.41V61.66C1068.41 60.8947 1068.22 60.3113 1067.83 59.91C1067.45 59.4993 1066.93 59.294 1066.27 59.294C1065.59 59.294 1065.06 59.504 1064.66 59.924C1064.26 60.344 1064.07 60.9553 1064.07 61.758V66H1062.79V55.64H1064.07V59.42C1064.32 59.028 1064.67 58.7247 1065.1 58.51C1065.55 58.2953 1066.05 58.188 1066.6 58.188ZM1074.47 66.126C1073.88 66.126 1073.35 66.028 1072.88 65.832C1072.42 65.6267 1072.05 65.3467 1071.78 64.992C1071.51 64.628 1071.36 64.2127 1071.33 63.746H1072.65C1072.68 64.1287 1072.86 64.4413 1073.18 64.684C1073.5 64.9267 1073.93 65.048 1074.45 65.048C1074.94 65.048 1075.32 64.9407 1075.6 64.726C1075.88 64.5113 1076.02 64.2407 1076.02 63.914C1076.02 63.578 1075.87 63.3307 1075.57 63.172C1075.27 63.004 1074.81 62.8407 1074.19 62.682C1073.62 62.5327 1073.15 62.3833 1072.79 62.234C1072.43 62.0753 1072.12 61.8467 1071.86 61.548C1071.61 61.24 1071.48 60.8387 1071.48 60.344C1071.48 59.952 1071.6 59.5927 1071.83 59.266C1072.07 58.9393 1072.4 58.6827 1072.83 58.496C1073.26 58.3 1073.75 58.202 1074.3 58.202C1075.15 58.202 1075.83 58.4167 1076.36 58.846C1076.88 59.2753 1077.16 59.8633 1077.2 60.61H1075.92C1075.89 60.2087 1075.73 59.8867 1075.43 59.644C1075.14 59.4013 1074.75 59.28 1074.26 59.28C1073.8 59.28 1073.43 59.378 1073.16 59.574C1072.89 59.77 1072.76 60.0267 1072.76 60.344C1072.76 60.596 1072.84 60.806 1073 60.974C1073.16 61.1327 1073.37 61.2633 1073.61 61.366C1073.86 61.4593 1074.21 61.5667 1074.65 61.688C1075.2 61.8373 1075.65 61.9867 1075.99 62.136C1076.34 62.276 1076.63 62.4907 1076.87 62.78C1077.13 63.0693 1077.26 63.4473 1077.27 63.914C1077.27 64.334 1077.15 64.712 1076.92 65.048C1076.68 65.384 1076.35 65.65 1075.92 65.846C1075.5 66.0327 1075.02 66.126 1074.47 66.126Z" fill="white"/>
<path d="M922.894 58.8781C922.959 58.0195 923.29 57.3475 923.888 56.8621C924.485 56.3768 925.26 56.1341 926.212 56.1341C926.846 56.1341 927.392 56.2508 927.85 56.4841C928.316 56.7081 928.666 57.0161 928.9 57.4081C929.142 57.8001 929.264 58.2435 929.264 58.7381C929.264 59.3168 929.096 59.8161 928.76 60.2361C928.433 60.6561 928.004 60.9268 927.472 61.0481V61.1181C928.078 61.2675 928.559 61.5615 928.914 62.0001C929.268 62.4388 929.446 63.0128 929.446 63.7221C929.446 64.2541 929.324 64.7348 929.082 65.1641C928.839 65.5841 928.475 65.9155 927.99 66.1581C927.504 66.4008 926.921 66.5221 926.24 66.5221C925.25 66.5221 924.438 66.2655 923.804 65.7521C923.169 65.2295 922.814 64.4921 922.74 63.5401H923.972C924.037 64.1001 924.266 64.5575 924.658 64.9121C925.05 65.2668 925.572 65.4441 926.226 65.4441C926.879 65.4441 927.374 65.2761 927.71 64.9401C928.055 64.5948 928.228 64.1515 928.228 63.6101C928.228 62.9101 927.994 62.4061 927.528 62.0981C927.061 61.7901 926.356 61.6361 925.414 61.6361H925.092V60.5721H925.428C926.286 60.5628 926.935 60.4228 927.374 60.1521C927.812 59.8721 928.032 59.4428 928.032 58.8641C928.032 58.3695 927.868 57.9728 927.542 57.6741C927.224 57.3755 926.767 57.2261 926.17 57.2261C925.591 57.2261 925.124 57.3755 924.77 57.6741C924.415 57.9728 924.205 58.3741 924.14 58.8781H922.894ZM931.166 61.2861C931.166 59.6808 931.427 58.4301 931.95 57.5341C932.473 56.6288 933.387 56.1761 934.694 56.1761C935.991 56.1761 936.901 56.6288 937.424 57.5341C937.947 58.4301 938.208 59.6808 938.208 61.2861C938.208 62.9195 937.947 64.1888 937.424 65.0941C936.901 65.9995 935.991 66.4521 934.694 66.4521C933.387 66.4521 932.473 65.9995 931.95 65.0941C931.427 64.1888 931.166 62.9195 931.166 61.2861ZM936.948 61.2861C936.948 60.4741 936.892 59.7881 936.78 59.2281C936.677 58.6588 936.458 58.2015 936.122 57.8561C935.795 57.5108 935.319 57.3381 934.694 57.3381C934.059 57.3381 933.574 57.5108 933.238 57.8561C932.911 58.2015 932.692 58.6588 932.58 59.2281C932.477 59.7881 932.426 60.4741 932.426 61.2861C932.426 62.1261 932.477 62.8308 932.58 63.4001C932.692 63.9695 932.911 64.4268 933.238 64.7721C933.574 65.1175 934.059 65.2901 934.694 65.2901C935.319 65.2901 935.795 65.1175 936.122 64.7721C936.458 64.4268 936.677 63.9695 936.78 63.4001C936.892 62.8308 936.948 62.1261 936.948 61.2861ZM943.423 62.5881C943.423 61.8041 943.582 61.1181 943.899 60.5301C944.217 59.9328 944.651 59.4708 945.201 59.1441C945.761 58.8175 946.387 58.6541 947.077 58.6541C947.675 58.6541 948.23 58.7941 948.743 59.0741C949.257 59.3448 949.649 59.7041 949.919 60.1521V56.0921H951.207V66.4521H949.919V65.0101C949.667 65.4675 949.294 65.8455 948.799 66.1441C948.305 66.4335 947.726 66.5781 947.063 66.5781C946.382 66.5781 945.761 66.4101 945.201 66.0741C944.651 65.7381 944.217 65.2668 943.899 64.6601C943.582 64.0535 943.423 63.3628 943.423 62.5881ZM949.919 62.6021C949.919 62.0235 949.803 61.5195 949.569 61.0901C949.336 60.6608 949.019 60.3341 948.617 60.1101C948.225 59.8768 947.791 59.7601 947.315 59.7601C946.839 59.7601 946.405 59.8721 946.013 60.0961C945.621 60.3201 945.309 60.6468 945.075 61.0761C944.842 61.5055 944.725 62.0095 944.725 62.5881C944.725 63.1761 944.842 63.6895 945.075 64.1281C945.309 64.5575 945.621 64.8888 946.013 65.1221C946.405 65.3461 946.839 65.4581 947.315 65.4581C947.791 65.4581 948.225 65.3461 948.617 65.1221C949.019 64.8888 949.336 64.5575 949.569 64.1281C949.803 63.6895 949.919 63.1808 949.919 62.6021ZM952.884 62.5881C952.884 61.8041 953.043 61.1181 953.36 60.5301C953.678 59.9328 954.112 59.4708 954.662 59.1441C955.222 58.8175 955.843 58.6541 956.524 58.6541C957.196 58.6541 957.78 58.7988 958.274 59.0881C958.769 59.3775 959.138 59.7415 959.38 60.1801V58.7801H960.668V66.4521H959.38V65.0241C959.128 65.4721 958.75 65.8455 958.246 66.1441C957.752 66.4335 957.173 66.5781 956.51 66.5781C955.829 66.5781 955.213 66.4101 954.662 66.0741C954.112 65.7381 953.678 65.2668 953.36 64.6601C953.043 64.0535 952.884 63.3628 952.884 62.5881ZM959.38 62.6021C959.38 62.0235 959.264 61.5195 959.03 61.0901C958.797 60.6608 958.48 60.3341 958.078 60.1101C957.686 59.8768 957.252 59.7601 956.776 59.7601C956.3 59.7601 955.866 59.8721 955.474 60.0961C955.082 60.3201 954.77 60.6468 954.536 61.0761C954.303 61.5055 954.186 62.0095 954.186 62.5881C954.186 63.1761 954.303 63.6895 954.536 64.1281C954.77 64.5575 955.082 64.8888 955.474 65.1221C955.866 65.3461 956.3 65.4581 956.776 65.4581C957.252 65.4581 957.686 65.3461 958.078 65.1221C958.48 64.8888 958.797 64.5575 959.03 64.1281C959.264 63.6895 959.38 63.1808 959.38 62.6021ZM969.429 58.7801L964.809 70.0641H963.493L965.005 66.3681L961.911 58.7801H963.325L965.733 64.9961L968.113 58.7801H969.429ZM973.426 66.5781C972.838 66.5781 972.311 66.4801 971.844 66.2841C971.377 66.0788 971.009 65.7988 970.738 65.4441C970.467 65.0801 970.318 64.6648 970.29 64.1981H971.606C971.643 64.5808 971.821 64.8935 972.138 65.1361C972.465 65.3788 972.889 65.5001 973.412 65.5001C973.897 65.5001 974.28 65.3928 974.56 65.1781C974.84 64.9635 974.98 64.6928 974.98 64.3661C974.98 64.0301 974.831 63.7828 974.532 63.6241C974.233 63.4561 973.771 63.2928 973.146 63.1341C972.577 62.9848 972.11 62.8355 971.746 62.6861C971.391 62.5275 971.083 62.2988 970.822 62.0001C970.57 61.6921 970.444 61.2908 970.444 60.7961C970.444 60.4041 970.561 60.0448 970.794 59.7181C971.027 59.3915 971.359 59.1348 971.788 58.9481C972.217 58.7521 972.707 58.6541 973.258 58.6541C974.107 58.6541 974.793 58.8688 975.316 59.2981C975.839 59.7275 976.119 60.3155 976.156 61.0621H974.882C974.854 60.6608 974.691 60.3388 974.392 60.0961C974.103 59.8535 973.711 59.7321 973.216 59.7321C972.759 59.7321 972.395 59.8301 972.124 60.0261C971.853 60.2221 971.718 60.4788 971.718 60.7961C971.718 61.0481 971.797 61.2581 971.956 61.4261C972.124 61.5848 972.329 61.7155 972.572 61.8181C972.824 61.9115 973.169 62.0188 973.608 62.1401C974.159 62.2895 974.607 62.4388 974.952 62.5881C975.297 62.7281 975.591 62.9428 975.834 63.2321C976.086 63.5215 976.217 63.8995 976.226 64.3661C976.226 64.7861 976.109 65.1641 975.876 65.5001C975.643 65.8361 975.311 66.1021 974.882 66.2981C974.462 66.4848 973.977 66.5781 973.426 66.5781Z" fill="#526275"/>
<path d="M852.348 57.4199L848.456 66.5479H847.168L851.116 57.5459H845.712V56.4539H852.348V57.4199ZM857.227 62.6839C857.227 61.8999 857.386 61.2139 857.703 60.6259C858.02 60.0285 858.454 59.5665 859.005 59.2399C859.565 58.9132 860.19 58.7499 860.881 58.7499C861.478 58.7499 862.034 58.8899 862.547 59.1699C863.06 59.4405 863.452 59.7999 863.723 60.2479V56.1879H865.011V66.5479H863.723V65.1059C863.471 65.5632 863.098 65.9412 862.603 66.2399C862.108 66.5292 861.53 66.6739 860.867 66.6739C860.186 66.6739 859.565 66.5059 859.005 66.1699C858.454 65.8339 858.02 65.3625 857.703 64.7559C857.386 64.1492 857.227 63.4585 857.227 62.6839ZM863.723 62.6979C863.723 62.1192 863.606 61.6152 863.373 61.1859C863.14 60.7565 862.822 60.4299 862.421 60.2059C862.029 59.9725 861.595 59.8559 861.119 59.8559C860.643 59.8559 860.209 59.9679 859.817 60.1919C859.425 60.4159 859.112 60.7425 858.879 61.1719C858.646 61.6012 858.529 62.1052 858.529 62.6839C858.529 63.2719 858.646 63.7852 858.879 64.2239C859.112 64.6532 859.425 64.9845 859.817 65.2179C860.209 65.4419 860.643 65.5539 861.119 65.5539C861.595 65.5539 862.029 65.4419 862.421 65.2179C862.822 64.9845 863.14 64.6532 863.373 64.2239C863.606 63.7852 863.723 63.2765 863.723 62.6979ZM866.688 62.6839C866.688 61.8999 866.847 61.2139 867.164 60.6259C867.481 60.0285 867.915 59.5665 868.466 59.2399C869.026 58.9132 869.647 58.7499 870.328 58.7499C871 58.7499 871.583 58.8945 872.078 59.1839C872.573 59.4732 872.941 59.8372 873.184 60.2759V58.8759H874.472V66.5479H873.184V65.1199C872.932 65.5679 872.554 65.9412 872.05 66.2399C871.555 66.5292 870.977 66.6739 870.314 66.6739C869.633 66.6739 869.017 66.5059 868.466 66.1699C867.915 65.8339 867.481 65.3625 867.164 64.7559C866.847 64.1492 866.688 63.4585 866.688 62.6839ZM873.184 62.6979C873.184 62.1192 873.067 61.6152 872.834 61.1859C872.601 60.7565 872.283 60.4299 871.882 60.2059C871.49 59.9725 871.056 59.8559 870.58 59.8559C870.104 59.8559 869.67 59.9679 869.278 60.1919C868.886 60.4159 868.573 60.7425 868.34 61.1719C868.107 61.6012 867.99 62.1052 867.99 62.6839C867.99 63.2719 868.107 63.7852 868.34 64.2239C868.573 64.6532 868.886 64.9845 869.278 65.2179C869.67 65.4419 870.104 65.5539 870.58 65.5539C871.056 65.5539 871.49 65.4419 871.882 65.2179C872.283 64.9845 872.601 64.6532 872.834 64.2239C873.067 63.7852 873.184 63.2765 873.184 62.6979ZM883.233 58.8759L878.613 70.1599H877.297L878.809 66.4639L875.715 58.8759H877.129L879.537 65.0919L881.917 58.8759H883.233ZM887.23 66.6739C886.642 66.6739 886.114 66.5759 885.648 66.3799C885.181 66.1745 884.812 65.8945 884.542 65.5399C884.271 65.1759 884.122 64.7605 884.094 64.2939H885.41C885.447 64.6765 885.624 64.9892 885.942 65.2319C886.268 65.4745 886.693 65.5959 887.216 65.5959C887.701 65.5959 888.084 65.4885 888.364 65.2739C888.644 65.0592 888.784 64.7885 888.784 64.4619C888.784 64.1259 888.634 63.8785 888.336 63.7199C888.037 63.5519 887.575 63.3885 886.95 63.2299C886.38 63.0805 885.914 62.9312 885.55 62.7819C885.195 62.6232 884.887 62.3945 884.626 62.0959C884.374 61.7879 884.248 61.3865 884.248 60.8919C884.248 60.4999 884.364 60.1405 884.598 59.8139C884.831 59.4872 885.162 59.2305 885.592 59.0439C886.021 58.8479 886.511 58.7499 887.062 58.7499C887.911 58.7499 888.597 58.9645 889.12 59.3939C889.642 59.8232 889.922 60.4112 889.96 61.1579H888.686C888.658 60.7565 888.494 60.4345 888.196 60.1919C887.906 59.9492 887.514 59.8279 887.02 59.8279C886.562 59.8279 886.198 59.9259 885.928 60.1219C885.657 60.3179 885.522 60.5745 885.522 60.8919C885.522 61.1439 885.601 61.3539 885.76 61.5219C885.928 61.6805 886.133 61.8112 886.376 61.9139C886.628 62.0072 886.973 62.1145 887.412 62.2359C887.962 62.3852 888.41 62.5345 888.756 62.6839C889.101 62.8239 889.395 63.0385 889.638 63.3279C889.89 63.6172 890.02 63.9952 890.03 64.4619C890.03 64.8819 889.913 65.2599 889.68 65.5959C889.446 65.9319 889.115 66.1979 888.686 66.3939C888.266 66.5805 887.78 66.6739 887.23 66.6739Z" fill="#526275"/>
<path d="M42.96 79.112C42.1813 79.112 41.4773 78.9787 40.848 78.712C40.2293 78.4453 39.7387 78.0613 39.376 77.56C39.0133 77.0587 38.8267 76.4667 38.816 75.784H41.216C41.248 76.2427 41.408 76.6053 41.696 76.872C41.9947 77.1387 42.4 77.272 42.912 77.272C43.4347 77.272 43.8453 77.1493 44.144 76.904C44.4427 76.648 44.592 76.3173 44.592 75.912C44.592 75.5813 44.4907 75.3093 44.288 75.096C44.0853 74.8827 43.8293 74.7173 43.52 74.6C43.2213 74.472 42.8053 74.3333 42.272 74.184C41.5467 73.9707 40.9547 73.7627 40.496 73.56C40.048 73.3467 39.6587 73.032 39.328 72.616C39.008 72.1893 38.848 71.624 38.848 70.92C38.848 70.2587 39.0133 69.6827 39.344 69.192C39.6747 68.7013 40.1387 68.328 40.736 68.072C41.3333 67.8053 42.016 67.672 42.784 67.672C43.936 67.672 44.8693 67.9547 45.584 68.52C46.3093 69.0747 46.7093 69.8533 46.784 70.856H44.32C44.2987 70.472 44.1333 70.1573 43.824 69.912C43.5253 69.656 43.1253 69.528 42.624 69.528C42.1867 69.528 41.8347 69.64 41.568 69.864C41.312 70.088 41.184 70.4133 41.184 70.84C41.184 71.1387 41.28 71.3893 41.472 71.592C41.6747 71.784 41.92 71.944 42.208 72.072C42.5067 72.1893 42.9227 72.328 43.456 72.488C44.1813 72.7013 44.7733 72.9147 45.232 73.128C45.6907 73.3413 46.0853 73.6613 46.416 74.088C46.7467 74.5147 46.912 75.0747 46.912 75.768C46.912 76.3653 46.7573 76.92 46.448 77.432C46.1387 77.944 45.6853 78.3547 45.088 78.664C44.4907 78.9627 43.7813 79.112 42.96 79.112ZM56.662 76.872H52.214L51.478 79H49.126L53.142 67.816H55.75L59.766 79H57.398L56.662 76.872ZM56.054 75.08L54.438 70.408L52.822 75.08H56.054ZM64.4671 77.224H68.1471V79H62.2271V67.832H64.4671V77.224ZM72.7709 69.64V72.44H76.5309V74.216H72.7709V77.176H77.0109V79H70.5309V67.816H77.0109V69.64H72.7709ZM83.8625 79.112C83.0838 79.112 82.3798 78.9787 81.7505 78.712C81.1318 78.4453 80.6412 78.0613 80.2785 77.56C79.9158 77.0587 79.7292 76.4667 79.7185 75.784H82.1185C82.1505 76.2427 82.3105 76.6053 82.5985 76.872C82.8972 77.1387 83.3025 77.272 83.8145 77.272C84.3372 77.272 84.7478 77.1493 85.0465 76.904C85.3452 76.648 85.4945 76.3173 85.4945 75.912C85.4945 75.5813 85.3932 75.3093 85.1905 75.096C84.9878 74.8827 84.7318 74.7173 84.4225 74.6C84.1238 74.472 83.7078 74.3333 83.1745 74.184C82.4492 73.9707 81.8572 73.7627 81.3985 73.56C80.9505 73.3467 80.5612 73.032 80.2305 72.616C79.9105 72.1893 79.7505 71.624 79.7505 70.92C79.7505 70.2587 79.9158 69.6827 80.2465 69.192C80.5772 68.7013 81.0412 68.328 81.6385 68.072C82.2358 67.8053 82.9185 67.672 83.6865 67.672C84.8385 67.672 85.7718 67.9547 86.4865 68.52C87.2118 69.0747 87.6118 69.8533 87.6865 70.856H85.2225C85.2012 70.472 85.0358 70.1573 84.7265 69.912C84.4278 69.656 84.0278 69.528 83.5265 69.528C83.0892 69.528 82.7372 69.64 82.4705 69.864C82.2145 70.088 82.0865 70.4133 82.0865 70.84C82.0865 71.1387 82.1825 71.3893 82.3745 71.592C82.5772 71.784 82.8225 71.944 83.1105 72.072C83.4092 72.1893 83.8252 72.328 84.3585 72.488C85.0838 72.7013 85.6758 72.9147 86.1345 73.128C86.5932 73.3413 86.9878 73.6613 87.3185 74.088C87.6492 74.5147 87.8145 75.0747 87.8145 75.768C87.8145 76.3653 87.6598 76.92 87.3505 77.432C87.0412 77.944 86.5878 78.3547 85.9905 78.664C85.3932 78.9627 84.6838 79.112 83.8625 79.112ZM101.249 79L98.785 74.648H97.729V79H95.489V67.832H99.681C100.545 67.832 101.281 67.9867 101.889 68.296C102.497 68.5947 102.95 69.0053 103.249 69.528C103.558 70.04 103.713 70.616 103.713 71.256C103.713 71.992 103.5 72.6587 103.073 73.256C102.646 73.8427 102.012 74.248 101.169 74.472L103.841 79H101.249ZM97.729 72.968H99.601C100.209 72.968 100.662 72.824 100.961 72.536C101.26 72.2373 101.409 71.8267 101.409 71.304C101.409 70.792 101.26 70.3973 100.961 70.12C100.662 69.832 100.209 69.688 99.601 69.688H97.729V72.968ZM108.939 69.64V72.44H112.699V74.216H108.939V77.176H113.179V79H106.699V67.816H113.179V69.64H108.939ZM124.319 71.288C124.319 71.8853 124.175 72.4453 123.887 72.968C123.609 73.4907 123.167 73.912 122.559 74.232C121.961 74.552 121.204 74.712 120.287 74.712H118.415V79H116.175V67.832H120.287C121.151 67.832 121.887 67.9813 122.495 68.28C123.103 68.5787 123.556 68.9893 123.855 69.512C124.164 70.0347 124.319 70.6267 124.319 71.288ZM120.191 72.904C120.809 72.904 121.268 72.7653 121.567 72.488C121.865 72.2 122.015 71.8 122.015 71.288C122.015 70.2 121.407 69.656 120.191 69.656H118.415V72.904H120.191ZM132.053 79.112C131.008 79.112 130.048 78.8667 129.173 78.376C128.298 77.8853 127.605 77.208 127.093 76.344C126.581 75.4693 126.325 74.4827 126.325 73.384C126.325 72.296 126.581 71.32 127.093 70.456C127.605 69.5813 128.298 68.8987 129.173 68.408C130.048 67.9173 131.008 67.672 132.053 67.672C133.109 67.672 134.069 67.9173 134.933 68.408C135.808 68.8987 136.496 69.5813 136.997 70.456C137.509 71.32 137.765 72.296 137.765 73.384C137.765 74.4827 137.509 75.4693 136.997 76.344C136.496 77.208 135.808 77.8853 134.933 78.376C134.058 78.8667 133.098 79.112 132.053 79.112ZM132.053 77.112C132.725 77.112 133.317 76.9627 133.829 76.664C134.341 76.3547 134.741 75.9173 135.029 75.352C135.317 74.7867 135.461 74.1307 135.461 73.384C135.461 72.6373 135.317 71.9867 135.029 71.432C134.741 70.8667 134.341 70.4347 133.829 70.136C133.317 69.8373 132.725 69.688 132.053 69.688C131.381 69.688 130.784 69.8373 130.261 70.136C129.749 70.4347 129.349 70.8667 129.061 71.432C128.773 71.9867 128.629 72.6373 128.629 73.384C128.629 74.1307 128.773 74.7867 129.061 75.352C129.349 75.9173 129.749 76.3547 130.261 76.664C130.784 76.9627 131.381 77.112 132.053 77.112ZM146.151 79L143.687 74.648H142.631V79H140.391V67.832H144.583C145.447 67.832 146.183 67.9867 146.791 68.296C147.399 68.5947 147.853 69.0053 148.151 69.528C148.461 70.04 148.615 70.616 148.615 71.256C148.615 71.992 148.402 72.6587 147.975 73.256C147.549 73.8427 146.914 74.248 146.071 74.472L148.743 79H146.151ZM142.631 72.968H144.503C145.111 72.968 145.565 72.824 145.863 72.536C146.162 72.2373 146.311 71.8267 146.311 71.304C146.311 70.792 146.162 70.3973 145.863 70.12C145.565 69.832 145.111 69.688 144.503 69.688H142.631V72.968ZM159.201 67.832V69.64H156.225V79H153.985V69.64H151.009V67.832H159.201Z" fill="#2D3748"/>
<path d="M42.172 54.098C41.528 54.098 40.9493 53.986 40.436 53.762C39.932 53.5287 39.5353 53.2113 39.246 52.81C38.9567 52.3993 38.8073 51.928 38.798 51.396H40.156C40.2027 51.8533 40.3893 52.2407 40.716 52.558C41.052 52.866 41.5373 53.02 42.172 53.02C42.7787 53.02 43.2547 52.8707 43.6 52.572C43.9547 52.264 44.132 51.872 44.132 51.396C44.132 51.0227 44.0293 50.7193 43.824 50.486C43.6187 50.2527 43.362 50.0753 43.054 49.954C42.746 49.8327 42.3307 49.702 41.808 49.562C41.164 49.394 40.646 49.226 40.254 49.058C39.8713 48.89 39.54 48.6287 39.26 48.274C38.9893 47.91 38.854 47.4247 38.854 46.818C38.854 46.286 38.9893 45.8147 39.26 45.404C39.5307 44.9933 39.9087 44.676 40.394 44.452C40.8887 44.228 41.4533 44.116 42.088 44.116C43.0027 44.116 43.7493 44.3447 44.328 44.802C44.916 45.2593 45.2473 45.866 45.322 46.622H43.922C43.8753 46.2487 43.6793 45.922 43.334 45.642C42.9887 45.3527 42.5313 45.208 41.962 45.208C41.43 45.208 40.996 45.348 40.66 45.628C40.324 45.8987 40.156 46.2813 40.156 46.776C40.156 47.1307 40.254 47.42 40.45 47.644C40.6553 47.868 40.9027 48.0407 41.192 48.162C41.4907 48.274 41.906 48.4047 42.438 48.554C43.082 48.7313 43.6 48.9087 43.992 49.086C44.384 49.254 44.72 49.52 45 49.884C45.28 50.2387 45.42 50.724 45.42 51.34C45.42 51.816 45.294 52.264 45.042 52.684C44.79 53.104 44.4167 53.4447 43.922 53.706C43.4273 53.9673 42.844 54.098 42.172 54.098ZM54.1408 44.242V45.278H51.4808V54H50.2068V45.278H47.5328V44.242H54.1408ZM62.317 51.83H58.061L57.277 54H55.933L59.461 44.298H60.931L64.445 54H63.101L62.317 51.83ZM61.953 50.794L60.189 45.866L58.425 50.794H61.953ZM72.8286 44.242V45.278H70.1686V54H68.8946V45.278H66.2206V44.242H72.8286ZM76.5108 44.242V54H75.2368V44.242H76.5108ZM82.6161 54.098C81.9721 54.098 81.3935 53.986 80.8801 53.762C80.3761 53.5287 79.9795 53.2113 79.6901 52.81C79.4008 52.3993 79.2515 51.928 79.2421 51.396H80.6001C80.6468 51.8533 80.8335 52.2407 81.1601 52.558C81.4961 52.866 81.9815 53.02 82.6161 53.02C83.2228 53.02 83.6988 52.8707 84.0441 52.572C84.3988 52.264 84.5761 51.872 84.5761 51.396C84.5761 51.0227 84.4735 50.7193 84.2681 50.486C84.0628 50.2527 83.8061 50.0753 83.4981 49.954C83.1901 49.8327 82.7748 49.702 82.2521 49.562C81.6081 49.394 81.0901 49.226 80.6981 49.058C80.3155 48.89 79.9841 48.6287 79.7041 48.274C79.4335 47.91 79.2981 47.4247 79.2981 46.818C79.2981 46.286 79.4335 45.8147 79.7041 45.404C79.9748 44.9933 80.3528 44.676 80.8381 44.452C81.3328 44.228 81.8975 44.116 82.5321 44.116C83.4468 44.116 84.1935 44.3447 84.7721 44.802C85.3601 45.2593 85.6915 45.866 85.7661 46.622H84.3661C84.3195 46.2487 84.1235 45.922 83.7781 45.642C83.4328 45.3527 82.9755 45.208 82.4061 45.208C81.8741 45.208 81.4401 45.348 81.1041 45.628C80.7681 45.8987 80.6001 46.2813 80.6001 46.776C80.6001 47.1307 80.6981 47.42 80.8941 47.644C81.0995 47.868 81.3468 48.0407 81.6361 48.162C81.9348 48.274 82.3501 48.4047 82.8821 48.554C83.5261 48.7313 84.0441 48.9087 84.4361 49.086C84.8281 49.254 85.1641 49.52 85.4441 49.884C85.7241 50.2387 85.8641 50.724 85.8641 51.34C85.8641 51.816 85.7381 52.264 85.4861 52.684C85.2341 53.104 84.8608 53.4447 84.3661 53.706C83.8715 53.9673 83.2881 54.098 82.6161 54.098ZM94.5849 44.242V45.278H91.9249V54H90.6509V45.278H87.9769V44.242H94.5849ZM98.2672 44.242V54H96.9932V44.242H98.2672ZM100.802 49.114C100.802 48.162 101.017 47.308 101.446 46.552C101.876 45.7867 102.459 45.1893 103.196 44.76C103.943 44.3307 104.769 44.116 105.674 44.116C106.738 44.116 107.667 44.3727 108.46 44.886C109.254 45.3993 109.832 46.1273 110.196 47.07H108.67C108.4 46.482 108.008 46.0293 107.494 45.712C106.99 45.3947 106.384 45.236 105.674 45.236C104.993 45.236 104.382 45.3947 103.84 45.712C103.299 46.0293 102.874 46.482 102.566 47.07C102.258 47.6487 102.104 48.33 102.104 49.114C102.104 49.8887 102.258 50.57 102.566 51.158C102.874 51.7367 103.299 52.1847 103.84 52.502C104.382 52.8193 104.993 52.978 105.674 52.978C106.384 52.978 106.99 52.824 107.494 52.516C108.008 52.1987 108.4 51.746 108.67 51.158H110.196C109.832 52.0913 109.254 52.8147 108.46 53.328C107.667 53.832 106.738 54.084 105.674 54.084C104.769 54.084 103.943 53.874 103.196 53.454C102.459 53.0247 101.876 52.432 101.446 51.676C101.017 50.92 100.802 50.066 100.802 49.114ZM116.027 54.098C115.383 54.098 114.804 53.986 114.291 53.762C113.787 53.5287 113.39 53.2113 113.101 52.81C112.812 52.3993 112.662 51.928 112.653 51.396H114.011C114.058 51.8533 114.244 52.2407 114.571 52.558C114.907 52.866 115.392 53.02 116.027 53.02C116.634 53.02 117.11 52.8707 117.455 52.572C117.81 52.264 117.987 51.872 117.987 51.396C117.987 51.0227 117.884 50.7193 117.679 50.486C117.474 50.2527 117.217 50.0753 116.909 49.954C116.601 49.8327 116.186 49.702 115.663 49.562C115.019 49.394 114.501 49.226 114.109 49.058C113.726 48.89 113.395 48.6287 113.115 48.274C112.844 47.91 112.709 47.4247 112.709 46.818C112.709 46.286 112.844 45.8147 113.115 45.404C113.386 44.9933 113.764 44.676 114.249 44.452C114.744 44.228 115.308 44.116 115.943 44.116C116.858 44.116 117.604 44.3447 118.183 44.802C118.771 45.2593 119.102 45.866 119.177 46.622H117.777C117.73 46.2487 117.534 45.922 117.189 45.642C116.844 45.3527 116.386 45.208 115.817 45.208C115.285 45.208 114.851 45.348 114.515 45.628C114.179 45.8987 114.011 46.2813 114.011 46.776C114.011 47.1307 114.109 47.42 114.305 47.644C114.51 47.868 114.758 48.0407 115.047 48.162C115.346 48.274 115.761 48.4047 116.293 48.554C116.937 48.7313 117.455 48.9087 117.847 49.086C118.239 49.254 118.575 49.52 118.855 49.884C119.135 50.2387 119.275 50.724 119.275 51.34C119.275 51.816 119.149 52.264 118.897 52.684C118.645 53.104 118.272 53.4447 117.777 53.706C117.282 53.9673 116.699 54.098 116.027 54.098Z" fill="#526275"/>
<g style="mix-blend-mode:multiply" opacity="0.33">
<path d="M114.299 348.281C108.685 347.753 99.0938 350.263 95 351.584V470.945H1102V334.188C1097.18 334.188 1098.05 334.188 1090.16 329.784C1082.26 325.38 1080.07 323.398 1066.91 326.701C1053.76 330.004 1052 326.701 1043.23 320.756C1034.46 314.81 1030.07 316.572 1019.55 318.553C1009.02 320.535 1007.26 312.388 996.071 306.883C984.878 301.377 980.072 313.489 975.686 322.077C971.327 330.613 961.335 338.496 952.17 345.727L952.003 345.859C942.792 353.126 929.196 342.996 924.81 338.592C920.424 334.188 919.109 333.527 905.951 334.188C892.793 334.849 888.846 331.986 884.46 326.701C880.074 321.416 880.951 322.737 870.864 318.553C860.776 314.37 855.952 317.232 850.25 316.572C844.549 315.911 837.97 308.204 833.584 303.8C829.198 299.396 829.637 296.313 816.479 298.295C803.51 300.248 800.768 297.923 793.972 292.163L793.672 291.909C786.655 285.963 781.83 284.202 767.796 281.119C753.761 278.036 758.147 279.357 747.62 281.119C737.094 282.88 731.831 280.458 725.253 276.274C718.674 272.09 720.867 263.722 702.885 267.026C684.902 270.329 680.955 262.401 677.008 254.033C673.06 245.666 662.096 245.666 651.131 247.427C640.166 249.189 635.342 237.078 634.465 228.71C633.587 220.342 632.71 217.039 619.991 217.039C607.272 217.039 608.149 230.251 603.325 247.427C598.5 264.603 601.132 265.044 586.659 265.704L586.658 265.704C572.185 266.365 572.185 266.365 564.29 279.357C556.396 292.349 553.326 291.909 539.291 291.909C525.256 291.909 519.993 302.258 515.169 313.048C510.401 323.71 500.067 320.827 484.589 316.508L484.029 316.351C468.24 311.947 464.731 313.048 454.643 297.414C444.556 281.779 431.837 289.046 426.135 298.735C420.433 308.424 417.363 309.745 407.714 313.048C398.065 316.351 388.416 317.232 384.908 323.178C381.399 329.123 369.557 333.968 359.47 330.444C349.382 326.921 341.926 327.802 336.224 333.968C330.523 340.133 324.821 339.913 318.242 340.574C311.663 341.235 297.629 340.574 290.611 346.74C283.594 352.906 273.945 351.584 268.682 350.263C263.419 348.941 252.454 348.281 248.945 350.263C245.437 352.245 234.91 359.291 223.28 348.281C211.649 337.271 198.508 344.538 195.876 346.74L195.771 346.828C193.083 349.079 186.978 354.192 177.455 351.584C167.806 348.942 159.912 348.281 152.456 351.584C145 354.888 137.982 356.209 132.719 354.227C127.456 352.245 121.316 348.942 114.299 348.281Z" fill="url(#paint0_linear_5_33849)"/>
</g>
<path d="M98.9492 350.498C103.011 349.187 112.528 346.696 118.098 347.221C125.06 347.876 131.153 351.154 136.375 353.12C141.597 355.086 148.56 353.776 155.958 350.498C163.356 347.221 171.189 347.876 180.763 350.498C190.337 353.12 196.429 347.876 199.04 345.691C201.651 343.506 214.691 336.296 226.231 347.221C237.771 358.145 248.215 351.153 251.696 349.187C255.178 347.221 266.057 347.876 271.279 349.187C276.501 350.498 286.075 351.809 293.038 345.691C300.001 339.573 313.926 340.229 320.454 339.573C326.982 338.918 332.639 339.136 338.296 333.019C343.953 326.901 351.351 326.027 361.36 329.523C371.37 333.019 383.119 328.212 386.601 322.313C390.082 316.413 399.656 315.539 409.23 312.262C418.804 308.985 421.85 307.674 427.507 298.06C433.164 288.447 445.784 281.236 455.793 296.749C465.802 312.262 469.284 311.169 484.95 315.539C500.617 319.909 511.061 322.968 515.848 312.262C520.635 301.556 525.857 291.287 539.782 291.287C553.708 291.287 556.754 291.724 564.587 278.833C572.42 265.942 572.42 265.942 586.781 265.286C601.142 264.631 598.531 264.194 603.318 247.152C608.105 230.109 607.234 217 619.854 217C632.475 217 633.345 220.277 634.215 228.58C635.086 236.883 639.873 248.9 650.752 247.152C661.631 245.404 672.511 245.404 676.427 253.706C680.344 262.009 684.26 269.875 702.103 266.597C719.945 263.32 717.769 271.623 724.296 275.774C730.824 279.925 736.046 282.329 746.49 280.581C756.935 278.833 752.583 277.522 766.508 280.581C780.434 283.64 785.221 285.388 792.184 291.287C799.147 297.186 801.758 299.59 814.813 297.623C827.868 295.657 827.433 298.716 831.785 303.085C836.136 307.455 842.664 315.102 848.321 315.758C853.979 316.413 858.765 313.573 868.775 317.724C878.784 321.876 877.913 320.565 882.265 325.808C886.617 331.052 890.533 333.893 903.589 333.237C916.644 332.582 917.949 333.237 922.301 337.607C926.653 341.977 940.143 352.027 949.282 344.817C958.421 337.607 968.43 329.741 972.781 321.22C977.133 312.699 981.901 300.682 993.007 306.144C1004.11 311.607 1005.85 319.691 1016.3 317.724C1026.74 315.758 1031.09 314.01 1039.8 319.909C1048.5 325.808 1050.24 329.086 1063.3 325.808C1076.35 322.531 1078.53 324.498 1086.36 328.867C1094.2 333.237 1093.32 333.237 1098.11 333.237" stroke="#194685" stroke-width="4" stroke-linecap="round"/>
<line x1="270.102" y1="287.611" x2="270.102" y2="469.61" stroke="#526275" stroke-width="2" stroke-linecap="round" stroke-dasharray="7 7"/>
<g filter="url(#filter1_d_5_33849)">
<circle cx="270.297" cy="286.611" r="10.8438" fill="#194685"/>
<circle cx="270.297" cy="286.611" r="8.84375" stroke="white" stroke-width="4"/>
</g>
<g filter="url(#filter2_d_5_33849)">
<path fill-rule="evenodd" clip-rule="evenodd" d="M245.823 217.931C241.405 217.931 237.823 221.512 237.823 225.931L237.823 251.931C237.823 256.349 241.405 259.931 245.823 259.931L262.259 259.931C262.271 259.945 262.284 259.96 262.297 259.974L268.819 267.115C269.612 267.984 270.98 267.984 271.773 267.115L278.295 259.974C278.308 259.96 278.321 259.945 278.334 259.931L294.77 259.931C299.188 259.931 302.77 256.349 302.77 251.931L302.77 225.931C302.77 221.512 299.188 217.931 294.77 217.931L245.823 217.931Z" fill="white"/>
</g>
<path d="M260.898 245.09C260.186 245.09 259.545 244.953 258.977 244.681C258.413 244.404 257.962 244.025 257.625 243.544C257.288 243.063 257.108 242.514 257.085 241.897H258.79C258.831 242.397 259.053 242.808 259.455 243.13C259.856 243.451 260.337 243.612 260.898 243.612C261.345 243.612 261.741 243.51 262.085 243.306C262.434 243.097 262.706 242.811 262.903 242.448C263.104 242.084 263.205 241.669 263.205 241.203C263.205 240.73 263.102 240.308 262.898 239.936C262.693 239.565 262.411 239.273 262.051 239.061C261.695 238.849 261.286 238.741 260.824 238.737C260.472 238.737 260.117 238.798 259.761 238.919C259.405 239.041 259.117 239.2 258.898 239.397L257.29 239.158L257.943 233.294H264.341V234.8H259.403L259.034 238.056H259.102C259.33 237.836 259.631 237.652 260.006 237.505C260.384 237.357 260.79 237.283 261.222 237.283C261.93 237.283 262.561 237.451 263.114 237.789C263.67 238.126 264.108 238.586 264.426 239.169C264.748 239.749 264.907 240.416 264.903 241.169C264.907 241.923 264.737 242.595 264.392 243.186C264.051 243.777 263.578 244.243 262.972 244.584C262.369 244.921 261.678 245.09 260.898 245.09ZM267.371 244.931L272.45 234.885V234.8H266.575V233.294H274.268V234.851L269.206 244.931H267.371ZM275.062 242.658V241.237L280.091 233.294H281.21V235.385H280.5L276.903 241.078V241.169H283.795V242.658H275.062ZM280.58 244.931V242.226L280.591 241.578V233.294H282.256V244.931H280.58Z" fill="#2D3748"/>
<defs>
<filter id="filter0_d_5_33849" x="0" y="0" width="1140" height="549" filterUnits="userSpaceOnUse" color-interpolation-filters="sRGB">
<feFlood flood-opacity="0" result="BackgroundImageFix"/>
<feColorMatrix in="SourceAlpha" type="matrix" values="0 0 0 0 0 0 0 0 0 0 0 0 0 0 0 0 0 0 127 0" result="hardAlpha"/>
<feOffset dy="2"/>
<feGaussianBlur stdDeviation="3"/>
<feComposite in2="hardAlpha" operator="out"/>
<feColorMatrix type="matrix" values="0 0 0 0 0.0509804 0 0 0 0 0.0392157 0 0 0 0 0.172549 0 0 0 0.08 0"/>
<feBlend mode="normal" in2="BackgroundImageFix" result="effect1_dropShadow_5_33849"/>
<feBlend mode="normal" in="SourceGraphic" in2="effect1_dropShadow_5_33849" result="shape"/>
</filter>
<filter id="filter1_d_5_33849" x="251.453" y="275.768" width="37.6875" height="37.6875" filterUnits="userSpaceOnUse" color-interpolation-filters="sRGB">
<feFlood flood-opacity="0" result="BackgroundImageFix"/>
<feColorMatrix in="SourceAlpha" type="matrix" values="0 0 0 0 0 0 0 0 0 0 0 0 0 0 0 0 0 0 127 0" result="hardAlpha"/>
<feOffset dy="8"/>
<feGaussianBlur stdDeviation="4"/>
<feComposite in2="hardAlpha" operator="out"/>
<feColorMatrix type="matrix" values="0 0 0 0 0.0509804 0 0 0 0 0.0392157 0 0 0 0 0.172549 0 0 0 0.08 0"/>
<feBlend mode="normal" in2="BackgroundImageFix" result="effect1_dropShadow_5_33849"/>
<feBlend mode="normal" in="SourceGraphic" in2="effect1_dropShadow_5_33849" result="shape"/>
</filter>
<filter id="filter2_d_5_33849" x="221.824" y="203.931" width="96.9453" height="81.8359" filterUnits="userSpaceOnUse" color-interpolation-filters="sRGB">
<feFlood flood-opacity="0" result="BackgroundImageFix"/>
<feColorMatrix in="SourceAlpha" type="matrix" values="0 0 0 0 0 0 0 0 0 0 0 0 0 0 0 0 0 0 127 0" result="hardAlpha"/>
<feOffset dy="2"/>
<feGaussianBlur stdDeviation="8"/>
<feComposite in2="hardAlpha" operator="out"/>
<feColorMatrix type="matrix" values="0 0 0 0 0.0509804 0 0 0 0 0.0392157 0 0 0 0 0.172549 0 0 0 0.12 0"/>
<feBlend mode="normal" in2="BackgroundImageFix" result="effect1_dropShadow_5_33849"/>
<feBlend mode="normal" in="SourceGraphic" in2="effect1_dropShadow_5_33849" result="shape"/>
</filter>
<linearGradient id="paint0_linear_5_33849" x1="598.5" y1="217.039" x2="598.5" y2="446.787" gradientUnits="userSpaceOnUse">
<stop stop-color="#194685"/>
<stop offset="0.46679" stop-color="#698FC5"/>
<stop offset="1" stop-color="white"/>
</linearGradient>
</defs>
</svg>
